<svg width="735" height="600" viewBox="0 0 735 600" fill="none" xmlns="http://www.w3.org/2000/svg">
<g clip-path="url(#clip0_1094_1446)">
<path d="M728.188 600H522.005C521.095 600.011 520.193 599.839 519.351 599.494C518.509 599.149 517.745 598.638 517.105 597.991C516.472 597.36 515.971 596.61 515.632 595.783C515.293 594.956 515.123 594.07 515.132 593.176C515.39 555.43 517.938 511.767 522.716 463.424C527.739 412.864 534.171 360.404 541.78 307.504L541.865 306.916C542.059 305.581 541.762 304.221 541.029 303.089C540.297 301.956 539.178 301.127 537.882 300.756C536.585 300.385 535.197 300.497 533.977 301.071C532.756 301.645 531.785 302.642 531.243 303.878C499.854 375.828 454.168 437.672 395.471 487.645C387.605 494.334 379.445 500.876 371.212 507.075C349.762 523.4 324.034 533.146 297.151 535.13C277.779 536.536 258.326 533.925 240.01 527.463C221.694 521 204.91 510.825 190.71 497.574C176.51 484.323 165.2 468.283 157.488 450.458C149.776 432.632 145.828 413.406 145.892 393.985C145.889 392.435 146.417 390.931 147.39 389.725C148.362 388.518 149.719 387.682 151.234 387.357C172.562 382.688 193.608 376.81 214.269 369.752C281.653 346.475 338.843 314.512 384.211 274.83C420.084 243.43 448.091 208.502 467.449 171.002C467.898 170.143 468.117 169.182 468.082 168.213C468.048 167.244 467.762 166.301 467.253 165.476C466.759 164.655 466.06 163.977 465.224 163.509C464.388 163.041 463.445 162.798 462.487 162.806H6.81191C5.00415 162.802 3.27155 162.082 1.99442 160.803C0.717287 159.523 -2.91339e-06 157.789 0 155.982L0 6.81164C0 5.00508 0.717681 3.27251 1.99516 1.99508C3.27264 0.717653 5.00528 0 6.81191 0L141.788 0C258.403 0.0596095 372.42 34.4466 469.621 98.8728C566.822 163.299 642.905 254.913 688.383 362.291C719.277 435.341 735.112 513.875 734.939 593.188C734.936 594.983 734.225 596.705 732.962 597.98C731.698 599.255 729.983 599.981 728.188 600ZM536.217 299.308C536.889 299.308 537.557 299.403 538.202 299.59C539.818 299.992 541.222 300.992 542.131 302.387C543.04 303.783 543.387 305.471 543.103 307.112L543.017 307.688C535.384 360.551 528.989 413.047 524.015 463.534C519.237 511.853 516.664 555.479 516.431 593.188C516.424 593.919 516.563 594.643 516.841 595.318C517.119 595.994 517.529 596.607 518.048 597.121C518.568 597.648 519.188 598.065 519.872 598.349C520.556 598.633 521.29 598.778 522.03 598.775H728.188C729.67 598.775 731.091 598.186 732.139 597.139C733.186 596.091 733.775 594.67 733.775 593.188C733.775 266.781 468.208 1.22511 141.788 1.22511H6.81191C5.33121 1.22835 3.91208 1.81797 2.86506 2.86494C1.81804 3.91192 1.2284 5.331 1.22516 6.81164V155.982C1.22516 157.464 1.81337 158.887 2.86074 159.936C3.9081 160.986 5.32909 161.577 6.81191 161.58H462.487C463.656 161.573 464.807 161.87 465.827 162.441C466.847 163.012 467.702 163.839 468.306 164.839C468.92 165.846 469.263 166.994 469.304 168.172C469.345 169.35 469.082 170.518 468.539 171.565C449.108 209.201 421.003 244.251 385.008 275.7C339.542 315.492 282.229 347.504 214.71 370.867C194.005 377.937 172.914 383.823 151.54 388.496C150.297 388.763 149.182 389.449 148.384 390.439C147.585 391.429 147.151 392.664 147.154 393.936C147.331 431.125 162.173 466.744 188.456 493.056C214.74 519.368 250.343 534.25 287.534 534.469C316.754 534.469 345.545 524.925 370.477 506.156C378.698 500.031 386.833 493.452 394.674 486.775C453.225 436.876 498.813 375.179 530.116 303.4C530.599 302.18 531.441 301.136 532.531 300.406C533.62 299.675 534.906 299.292 536.217 299.308Z" fill="white" fill-opacity="0.2"/>
</g>
<defs>
<clipPath id="clip0_1094_1446">
<rect width="735" height="600" fill="white"/>
</clipPath>
</defs>
</svg>
