<svg width="116" height="121" viewBox="0 0 116 121" fill="none" xmlns="http://www.w3.org/2000/svg">
<path d="M56.5564 82.6416C78.5488 82.6416 96.3772 64.8132 96.3772 42.8208C96.3772 20.8284 78.5488 3 56.5564 3C34.564 3 16.7356 20.8284 16.7356 42.8208C16.7356 64.8132 34.564 82.6416 56.5564 82.6416Z" stroke="white" stroke-width="6" stroke-linecap="round" stroke-linejoin="round"/>
<path d="M56.5536 60.5174C66.328 60.5174 74.2517 52.5936 74.2517 42.8192C74.2517 33.0448 66.328 25.1211 56.5536 25.1211C46.7792 25.1211 38.8555 33.0448 38.8555 42.8192C38.8555 52.5936 46.7792 60.5174 56.5536 60.5174Z" stroke="white" stroke-width="6" stroke-linecap="round" stroke-linejoin="round"/>
<path d="M48.8561 81.9329L41.0689 114.674C40.9148 115.297 40.6299 115.879 40.2332 116.382C39.8365 116.886 39.337 117.299 38.7681 117.595C38.1677 117.855 37.5201 117.99 36.8656 117.99C36.211 117.99 35.5635 117.855 34.963 117.595L5.58415 104.763C4.9679 104.472 4.42566 104.045 3.99812 103.514C3.57058 102.983 3.26885 102.362 3.11557 101.698C2.9623 101.034 2.96147 100.344 3.11314 99.6792C3.26482 99.0146 3.56505 98.3931 3.99131 97.8612L26.7334 69.3672" stroke="white" stroke-width="6" stroke-linecap="round" stroke-linejoin="round"/>
<path d="M66.5562 81.492L74.5203 114.676C74.6787 115.309 74.975 115.899 75.3881 116.404C75.8011 116.908 76.3207 117.316 76.9096 117.596C77.4935 117.86 78.127 117.997 78.7679 117.997C79.4087 117.997 80.0422 117.86 80.6262 117.596L109.828 104.765C110.454 104.477 111.003 104.047 111.433 103.51C111.864 102.972 112.162 102.341 112.306 101.668C112.474 101.009 112.481 100.32 112.327 99.6576C112.173 98.9955 111.862 98.38 111.421 97.8628L87.7054 67.6875" stroke="white" stroke-width="6" stroke-linecap="round" stroke-linejoin="round"/>
</svg>
