<svg width="121" height="121" viewBox="0 0 121 121" fill="none" xmlns="http://www.w3.org/2000/svg">
<path d="M47.242 109.151C49.6873 106.898 51.6389 104.161 52.9738 101.115C54.3087 98.0696 54.9979 94.7802 54.9979 91.4546C54.9979 88.1291 54.3087 84.8396 52.9738 81.7937C51.6389 78.7479 49.6873 76.0117 47.242 73.7578C44.9881 71.3125 42.252 69.3609 39.2061 68.026C36.1602 66.6911 32.8708 66.002 29.5452 66.002C26.2197 66.002 22.9302 66.6911 19.8843 68.026C16.8385 69.3609 14.1023 71.3125 11.8484 73.7578C3 82.6062 3 118 3 118C3 118 38.3936 118 47.242 109.151Z" stroke="white" stroke-width="6" stroke-linecap="round" stroke-linejoin="round"/>
<path d="M112.896 8.10341C109.831 5.07723 105.767 3.27286 101.467 3.02851C97.1661 2.78417 92.9242 4.11664 89.536 6.77615L38.3922 42.7891L32.1099 66.1489C37.8756 66.8793 43.2164 69.5653 47.2406 73.7585C51.4338 77.7828 54.1198 83.1235 54.8503 88.8893L78.21 82.6069L114.223 31.4632C116.883 28.0749 118.215 23.8331 117.971 19.5327C117.726 15.2323 115.922 11.1686 112.896 8.10341V8.10341Z" stroke="white" stroke-width="6" stroke-linecap="round" stroke-linejoin="round"/>
<path d="M3 117.999L31.7573 89.2422" stroke="white" stroke-width="6" stroke-linecap="round" stroke-linejoin="round"/>
</svg>
