<svg width="981" height="472" viewBox="0 0 981 472" fill="none" xmlns="http://www.w3.org/2000/svg">
<g clip-path="url(#clip0_458_357)">
<path d="M261.352 413.524C264.981 419.298 270.159 423.933 276.295 426.899C282.704 429.987 289.739 431.548 296.851 431.459C303.109 431.587 309.343 430.653 315.29 428.697C320.261 426.992 324.972 424.603 329.287 421.6C333.171 418.869 336.789 415.778 340.094 412.368V455.72C334.156 460.031 327.69 463.56 320.853 466.22C313.863 468.982 304.926 470.363 294.045 470.363C282.513 470.485 271.047 468.616 260.149 464.839C250.304 461.452 241.28 456.031 233.661 448.928C226.298 441.978 220.48 433.553 216.585 424.202C208.547 403.672 208.547 380.86 216.585 360.33C220.504 350.959 226.356 342.522 233.757 335.572C241.376 328.469 250.4 323.048 260.245 319.66C271.141 315.876 282.609 314.007 294.141 314.137C305.033 314.137 313.969 315.481 320.95 318.167C327.829 320.783 334.306 324.355 340.19 328.78V372.132C336.872 368.708 333.237 365.606 329.335 362.867C325.02 359.864 320.309 357.476 315.338 355.771C309.391 353.814 303.157 352.881 296.899 353.009C289.787 352.92 282.752 354.481 276.343 357.569C270.196 360.514 265.001 365.132 261.352 370.895C257.673 377.398 255.739 384.744 255.739 392.218C255.739 399.692 257.673 407.038 261.352 413.54V413.524Z" fill="white"/>
<path d="M411.348 317.91V466.461H368.538V317.91H411.348ZM507.343 317.91L448.435 387.513L510.518 466.461H460.717L399.467 388.782L459.45 317.91H507.343Z" fill="white"/>
<path d="M512.33 360.266C516.324 350.93 522.204 342.523 529.599 335.572C537.066 328.64 545.813 323.235 555.349 319.66C565.546 315.847 576.356 313.943 587.24 314.04C598.267 313.921 609.223 315.825 619.565 319.66C629.097 323.243 637.842 328.647 645.315 335.572C652.685 342.475 658.5 350.871 662.375 360.202C666.51 370.332 668.56 381.194 668.404 392.137C668.534 403.126 666.519 414.034 662.471 424.249C658.693 433.812 652.961 442.478 645.645 449.695C638.328 456.911 629.587 462.518 619.982 466.156C609.534 470.16 598.427 472.159 587.24 472.048C576.093 472.183 565.021 470.2 554.611 466.204C544.987 462.472 536.224 456.812 528.861 449.57C521.551 442.378 515.813 433.745 512.009 424.217C507.962 414.002 505.946 403.094 506.077 392.105C505.935 381.173 508.065 370.33 512.33 360.266ZM554.179 413.251C557.108 419.216 561.667 424.226 567.326 427.701C573.431 431.113 580.306 432.903 587.296 432.903C594.287 432.903 601.162 431.113 607.267 427.701C612.874 424.198 617.39 419.192 620.302 413.251C623.508 406.683 625.107 399.446 624.968 392.137C625.114 384.835 623.589 377.596 620.511 370.975C617.699 365.065 613.246 360.093 607.684 356.653C601.488 353.027 594.397 351.223 587.224 351.451C580.231 351.281 573.33 353.084 567.31 356.653C561.675 360.101 557.12 365.063 554.162 370.975C551.088 377.608 549.496 384.833 549.496 392.145C549.496 399.458 551.088 406.682 554.162 413.315L554.179 413.251Z" fill="white"/>
<path d="M731.561 317.91V466.461H690.45V317.91H731.561ZM716.714 317.91H745.318C758.883 317.91 770.08 319.923 778.909 323.947C787.108 327.433 794.002 333.416 798.615 341.047C802.89 348.401 805.028 357.242 805.028 367.572C805.275 376.826 803.061 385.98 798.615 394.096C794.069 401.806 787.157 407.838 778.909 411.292C770.08 415.242 758.883 417.222 745.318 417.233H716.714V384.141H745.318C751.806 384.141 756.825 382.723 760.374 379.887C763.923 377.05 765.686 372.95 765.665 367.588C765.792 365.296 765.38 363.006 764.461 360.903C763.542 358.8 762.142 356.943 760.374 355.481C756.825 352.655 751.806 351.243 745.318 351.243H716.714V317.91Z" fill="white"/>
<path d="M824.91 360.266C828.904 350.93 834.784 342.523 842.179 335.572C849.649 328.643 858.395 323.239 867.929 319.66C878.132 315.849 888.947 313.944 899.837 314.041C910.858 313.92 921.809 315.824 932.145 319.66C941.679 323.239 950.425 328.643 957.895 335.572C965.265 342.475 971.081 350.871 974.955 360.202C979.095 370.331 981.151 381.193 981 392.137C981.123 403.125 979.108 414.032 975.067 424.249C971.279 433.806 965.545 442.468 958.229 449.683C950.914 456.898 942.178 462.508 932.578 466.156C911.477 473.948 888.292 473.948 867.192 466.156C857.573 462.434 848.812 456.791 841.441 449.57C834.132 442.379 828.393 433.745 824.59 424.217C820.549 414 818.534 403.093 818.657 392.105C818.515 381.173 820.645 370.33 824.91 360.266ZM866.775 413.251C869.698 419.215 874.252 424.226 879.906 427.701C886.014 431.113 892.891 432.903 899.885 432.903C906.878 432.903 913.755 431.113 919.863 427.701C925.468 424.201 929.979 419.194 932.882 413.251C936.088 406.683 937.687 399.446 937.548 392.137C937.719 384.841 936.222 377.603 933.171 370.975C930.358 365.067 925.905 360.094 920.344 356.653C914.155 353.025 907.068 351.221 899.901 351.451C892.902 351.282 885.996 353.084 879.971 356.653C874.337 360.098 869.786 365.061 866.839 370.975C863.765 377.608 862.172 384.833 862.172 392.145C862.172 399.458 863.765 406.682 866.839 413.315L866.775 413.251Z" fill="white"/>
<path d="M3.03022 206.753C4.98086 201.924 7.90674 197.551 11.6244 193.908C15.3626 190.245 19.7873 187.358 24.6439 185.414C29.7676 183.365 35.2408 182.335 40.7579 182.38C46.3339 182.315 51.8685 183.346 57.0483 185.414C61.8841 187.371 66.2907 190.257 70.0197 193.908C73.7323 197.552 76.6527 201.925 78.5978 206.753C80.662 211.94 81.6915 217.482 81.6282 223.066C81.6662 228.65 80.6263 234.189 78.5658 239.379C76.6346 244.259 73.7324 248.695 70.0358 252.416C66.3244 256.118 61.9151 259.043 57.0644 261.022C51.8745 263.119 46.3217 264.167 40.7258 264.105C35.1518 264.155 29.6223 263.107 24.4515 261.022C19.5952 259.069 15.1895 256.141 11.5055 252.419C7.82154 248.697 4.93727 244.259 3.03022 239.379C0.980621 234.187 -0.0483574 228.648 -0.000178201 223.066C-0.0634799 217.482 0.966036 211.94 3.03022 206.753ZM17.4607 237.516C19.6461 241.649 22.9315 245.094 26.9528 247.471C31.142 249.905 35.9151 251.149 40.7579 251.068C45.6228 251.164 50.4205 249.92 54.6272 247.471C58.6227 245.082 61.8845 241.638 64.0551 237.516C66.3966 233.066 67.5769 228.095 67.4864 223.066C67.5748 218.044 66.4179 213.079 64.1193 208.615C61.9762 204.49 58.7283 201.043 54.7394 198.661C50.4959 196.202 45.6594 194.958 40.7579 195.064C35.9151 194.983 31.142 196.226 26.9528 198.661C22.9315 201.038 19.6461 204.483 17.4607 208.615C15.2052 213.098 14.0304 218.047 14.0304 223.066C14.0304 228.085 15.2052 233.034 17.4607 237.516Z" fill="white"/>
<path d="M107.571 205.405C107.498 208.318 108.044 211.213 109.174 213.898C110.168 216.237 111.802 218.246 113.888 219.695C116.098 221.163 118.709 221.909 121.36 221.83L119.099 233.631C114.333 233.777 109.631 232.509 105.583 229.986C101.908 227.59 99.0153 224.168 97.261 220.144C95.4203 215.812 94.5134 211.139 94.5993 206.432V183.713H107.619L107.571 205.405ZM121.392 221.83H143.503V233.631H119.131L121.392 221.83ZM150.461 183.713V262.388H136.881V183.713H150.461Z" fill="white"/>
<path d="M185.832 234.868L185.607 237.79L174.769 262.42H159.793L198.274 179.33L236.756 262.42H221.812L211.149 238.465L210.813 235.253L198.354 206.015L185.832 234.868ZM180.108 230.934H216.601L219.182 242.173H177.639L180.108 230.934Z" fill="white"/>
<path d="M259.283 183.713V262.388H245.687V183.713H259.283ZM304.419 183.713L271.293 220.642L306.102 262.468H289.812L255.227 220.931L288.465 183.713H304.419Z" fill="white"/>
<path d="M325.295 215.311H337.994C340.225 215.354 342.442 214.933 344.503 214.075C346.27 213.334 347.789 212.103 348.881 210.527C349.974 208.878 350.533 206.933 350.484 204.955C350.561 203.495 350.285 202.038 349.679 200.707C349.073 199.377 348.156 198.212 347.005 197.312C344.4 195.428 341.236 194.477 338.026 194.615H328.405V251.518H339.421C342.164 251.575 344.89 251.078 347.437 250.057C349.656 249.16 351.567 247.637 352.937 245.673C354.092 243.755 354.772 241.589 354.92 239.354C355.067 237.12 354.679 234.882 353.787 232.828C353.044 231.25 351.946 229.865 350.58 228.782C349.132 227.662 347.467 226.858 345.69 226.422C343.673 225.909 341.598 225.661 339.517 225.683H325.359V218.362H340.302C343.93 218.343 347.548 218.758 351.077 219.598C354.284 220.355 357.342 221.646 360.12 223.42C362.717 225.077 364.861 227.356 366.357 230.051C367.912 233.018 368.684 236.334 368.602 239.684C368.79 244.248 367.508 248.751 364.946 252.529C362.429 255.958 358.953 258.561 354.957 260.011C350.258 261.696 345.293 262.512 340.302 262.42H315.193V183.745H338.891C343.346 183.66 347.778 184.383 351.975 185.88C355.508 187.13 358.593 189.398 360.842 192.399C363.081 195.665 364.206 199.568 364.049 203.526C364.15 207.114 363.018 210.628 360.842 213.481C358.525 216.349 355.454 218.513 351.975 219.727C347.778 221.224 343.346 221.948 338.891 221.862H325.295V215.311Z" fill="white"/>
<path d="M398.522 234.868L398.297 237.79L387.394 262.42H372.467L410.868 179.33L449.269 262.42H434.342L423.663 238.465L423.326 235.253L410.868 206.015L398.522 234.868ZM392.83 230.934H429.323L431.92 242.173H390.312L392.83 230.934Z" fill="white"/>
<path d="M458.36 266.355L458.922 248.147L528.765 179.829L528.204 198.036L458.36 266.355ZM471.396 251.519L458.36 266.355V183.714H471.396V251.519ZM487.67 160.096C487.692 161.306 487.983 162.496 488.52 163.58C489.135 164.847 490.112 165.903 491.326 166.614C492.873 167.505 494.642 167.934 496.425 167.851C498.249 167.944 500.062 167.515 501.652 166.614C502.866 165.903 503.842 164.847 504.458 163.58C504.995 162.496 505.285 161.306 505.308 160.096H514.511C514.521 162.833 513.825 165.526 512.491 167.915C511.065 170.428 508.966 172.492 506.43 173.872C503.354 175.506 499.904 176.303 496.425 176.184C492.987 176.292 489.582 175.494 486.548 173.872C484.012 172.492 481.912 170.428 480.487 167.915C479.153 165.526 478.457 162.833 478.467 160.096H487.67ZM528.765 262.421H515.746V194.986L528.765 179.813V262.421Z" fill="white"/>
<path d="M538.321 183.713H593.109V195.964H572.409V262.42H559.037V195.964H538.321V183.713Z" fill="white"/>
<path d="M615.796 183.713V262.388H602.761V183.713H615.796ZM610.986 183.713H650.622V195.402H610.97L610.986 183.713ZM610.986 214.524H648.377V225.989H610.97L610.986 214.524ZM610.986 250.731H650.622V262.42H610.97L610.986 250.731Z" fill="white"/>
<path d="M655.048 2.76164V69.1213C655.048 69.4832 655.119 69.8416 655.258 70.1757C655.397 70.5099 655.6 70.8133 655.857 71.0685C656.113 71.3236 656.417 71.5255 656.751 71.6626C657.086 71.7996 657.444 71.869 657.806 71.8669H860.217C860.688 71.8804 861.147 72.013 861.553 72.2521C861.958 72.4913 862.297 72.8293 862.537 73.2347C862.777 73.6402 862.911 74.0998 862.926 74.5709C862.94 75.042 862.836 75.5092 862.622 75.9291C853.298 93.5484 840.732 109.243 825.584 122.187C805.275 139.945 780.08 154.036 750 164.462C740.816 167.61 731.458 170.226 721.973 172.298C721.378 172.455 720.852 172.808 720.48 173.3C720.108 173.792 719.911 174.394 719.921 175.011C719.921 226.39 778.589 256.03 819.571 225.122C823.238 222.35 826.824 219.47 830.33 216.484C856.383 194.269 876.974 166.343 890.505 134.871C890.76 134.244 891.236 133.734 891.843 133.437C892.45 133.141 893.145 133.079 893.795 133.264C894.445 133.449 895.003 133.868 895.364 134.44C895.724 135.012 895.861 135.697 895.748 136.364V136.621C892.36 160.031 889.543 183.146 887.298 205.967C885.161 227.589 884.038 246.819 883.931 263.657C883.929 264.02 883.999 264.38 884.137 264.716C884.275 265.052 884.478 265.357 884.734 265.614C884.991 265.871 885.296 266.074 885.631 266.212C885.967 266.35 886.326 266.42 886.689 266.418H978.275C979.003 266.418 979.702 266.129 980.219 265.615C980.736 265.101 981.028 264.402 981.032 263.673C981.041 229.047 974.237 194.759 961.009 162.767C947.782 130.775 928.39 101.706 903.941 77.2205C879.493 52.7349 850.466 33.3126 818.52 20.0629C786.574 6.81323 752.334 -0.00421708 717.756 1.95704e-06H657.806C657.074 1.95704e-06 656.373 0.29096 655.856 0.808868C655.338 1.32678 655.048 2.02921 655.048 2.76164Z" fill="white"/>
</g>
<defs>
<clipPath id="clip0_458_357">
<rect width="981" height="472" fill="white"/>
</clipPath>
</defs>
</svg>
