<svg width="195" height="195" viewBox="0 0 195 195" fill="none" xmlns="http://www.w3.org/2000/svg">
<g clip-path="url(#clip0_458_275)">
<path d="M97.3603 5.13605e-07C78.1019 6.15169e-07 59.276 5.7109 43.2634 16.4105C27.2507 27.1101 14.7706 42.3178 7.40117 60.1104C0.0317602 77.903 -1.89591 97.4814 1.86195 116.37C5.6198 135.258 14.8944 152.607 28.5128 166.225C42.1313 179.842 59.4819 189.114 78.3705 192.87C97.259 196.626 116.837 194.697 134.629 187.325C152.421 179.954 167.627 167.472 178.325 151.459C189.023 135.445 194.732 116.618 194.73 97.36C194.73 84.5737 192.212 71.9125 187.318 60.0996C182.425 48.2867 175.252 37.5534 166.211 28.5125C157.169 19.4717 146.435 12.3004 134.621 7.40822C122.808 2.51601 110.147 -0.00131279 97.3603 5.13605e-07ZM135.69 49.16H124.28C113.05 49.16 109.54 56.16 109.54 63.28V80.28H134.63L130.63 106.42H109.54V169.62H81.2803V106.42H58.2803V80.25H81.2803V60.32C81.2803 37.65 94.7803 25.13 115.44 25.13C122.224 25.2244 128.993 25.816 135.69 26.9V49.16Z" fill="white"/>
</g>
<defs>
<clipPath id="clip0_458_275">
<rect width="194.73" height="194.73" fill="white"/>
</clipPath>
</defs>
</svg>
