<svg width="195" height="195" viewBox="0 0 195 195" fill="none" xmlns="http://www.w3.org/2000/svg">
<path d="M97.8505 78.7402C94.1678 78.7402 90.5678 79.8323 87.5058 81.8783C84.4437 83.9243 82.0571 86.8323 80.6478 90.2347C79.2385 93.637 78.8698 97.3809 79.5883 100.993C80.3067 104.605 82.0801 107.923 84.6841 110.527C87.2882 113.131 90.606 114.904 94.2179 115.622C97.8298 116.341 101.574 115.972 104.976 114.563C108.378 113.154 111.286 110.767 113.332 107.705C115.378 104.643 116.47 101.043 116.47 97.3602C116.465 92.4235 114.502 87.6905 111.011 84.1998C107.52 80.709 102.787 78.7455 97.8505 78.7402Z" fill="white"/>
<path d="M120.92 49.4492H73.8002C67.3438 49.4545 61.1534 52.0217 56.588 56.587C52.0226 61.1524 49.4555 67.3428 49.4502 73.7992V120.919C49.4555 127.376 52.0226 133.566 56.588 138.131C61.1534 142.697 67.3438 145.264 73.8002 145.269H120.92C127.377 145.264 133.567 142.697 138.132 138.131C142.698 133.566 145.265 127.376 145.27 120.919V73.7992C145.265 67.3428 142.698 61.1524 138.132 56.587C133.567 52.0217 127.377 49.4545 120.92 49.4492ZM97.8502 126.449C92.1007 126.449 86.4803 124.744 81.6998 121.55C76.9192 118.356 73.1933 113.816 70.993 108.504C68.7928 103.192 68.2171 97.347 69.3388 91.7079C70.4604 86.0689 73.2291 80.8891 77.2946 76.8236C81.3601 72.7581 86.5399 69.9895 92.1789 68.8678C97.8179 67.7461 103.663 68.3218 108.975 70.522C114.287 72.7223 118.827 76.4483 122.021 81.2288C125.215 86.0093 126.92 91.6297 126.92 97.3792C126.907 105.083 123.839 112.467 118.39 117.913C112.941 123.359 105.554 126.421 97.8502 126.429V126.449ZM128.61 73.2792C127.242 73.2792 125.904 72.8734 124.766 72.113C123.628 71.3526 122.741 70.2719 122.217 69.0074C121.693 67.7429 121.556 66.3515 121.823 65.0092C122.09 63.6668 122.749 62.4338 123.717 61.466C124.685 60.4983 125.918 59.8392 127.26 59.5722C128.603 59.3052 129.994 59.4422 131.258 59.966C132.523 60.4897 133.604 61.3767 134.364 62.5147C135.124 63.6527 135.53 64.9906 135.53 66.3592C135.525 68.191 134.794 69.946 133.496 71.2395C132.199 72.5329 130.442 73.2592 128.61 73.2592V73.2792Z" fill="white"/>
<path d="M97.3603 5.13605e-07C78.1019 6.15169e-07 59.276 5.7109 43.2634 16.4105C27.2507 27.1101 14.7706 42.3178 7.40117 60.1104C0.0317602 77.903 -1.89591 97.4814 1.86195 116.37C5.6198 135.258 14.8944 152.607 28.5128 166.225C42.1313 179.842 59.4819 189.114 78.3705 192.87C97.259 196.626 116.837 194.697 134.629 187.325C152.421 179.954 167.627 167.472 178.325 151.459C189.023 135.445 194.732 116.618 194.73 97.36C194.73 84.5737 192.212 71.9125 187.318 60.0996C182.425 48.2867 175.252 37.5534 166.211 28.5125C157.169 19.4717 146.435 12.3004 134.621 7.40822C122.808 2.51601 110.147 -0.00131279 97.3603 5.13605e-07ZM156.36 120.92C156.35 130.321 152.61 139.335 145.963 145.982C139.315 152.63 130.302 156.369 120.9 156.38H73.8003C64.4007 156.367 55.39 152.626 48.7444 145.979C42.0988 139.331 38.3609 130.32 38.3503 120.92V73.8C38.3609 64.4013 42.0992 55.3906 48.745 48.7448C55.3909 42.0989 64.4016 38.3606 73.8003 38.35H120.92C130.32 38.3606 139.332 42.0986 145.979 48.7441C152.627 55.3897 156.367 64.4004 156.38 73.8L156.36 120.92Z" fill="white"/>
</svg>
