<svg width="195" height="195" viewBox="0 0 195 195" fill="none" xmlns="http://www.w3.org/2000/svg">
<g clip-path="url(#clip0_458_291)">
<path d="M97.3603 5.13605e-07C78.1019 6.15169e-07 59.276 5.7109 43.2634 16.4105C27.2507 27.1101 14.7706 42.3178 7.40117 60.1104C0.0317602 77.903 -1.89591 97.4814 1.86195 116.37C5.6198 135.258 14.8944 152.607 28.5128 166.225C42.1313 179.842 59.4819 189.114 78.3705 192.87C97.259 196.626 116.837 194.697 134.629 187.325C152.421 179.954 167.627 167.472 178.325 151.459C189.023 135.445 194.732 116.618 194.73 97.36C194.73 84.5737 192.212 71.9125 187.318 60.0996C182.425 48.2867 175.252 37.5534 166.211 28.5125C157.169 19.4717 146.435 12.3004 134.621 7.40822C122.808 2.51601 110.147 -0.00131279 97.3603 5.13605e-07ZM69.3603 142H48.3603V74.51H69.3603V142ZM58.9003 65.3C56.4933 65.302 54.1398 64.5901 52.1373 63.2545C50.1349 61.9189 48.5734 60.0195 47.6505 57.7965C46.7276 55.5735 46.4845 53.1267 46.9522 50.7656C47.4198 48.4044 48.5771 46.235 50.2777 44.5316C51.9783 42.8282 54.1459 41.6673 56.5062 41.1958C58.8666 40.7243 61.3138 40.9633 63.5383 41.8826C65.7628 42.8019 67.6648 44.3602 69.0037 46.3604C70.3426 48.3606 71.0583 50.713 71.0603 53.12C71.0603 56.3469 69.7798 59.4419 67.4999 61.7255C65.22 64.0091 62.1272 65.2947 58.9003 65.3ZM148 142H127V109.2C127 101.37 126.85 91.3 116.1 91.3C105.17 91.3 103.5 99.83 103.5 108.63V142H82.5003V74.51H102.7V83.75H103C105.8 78.43 112.65 72.84 122.87 72.84C144.12 72.84 148.03 86.84 148.03 105L148 142Z" fill="white"/>
</g>
<defs>
<clipPath id="clip0_458_291">
<rect width="194.73" height="194.73" fill="white"/>
</clipPath>
</defs>
</svg>
