<svg width="209" height="59" viewBox="0 0 209 59" fill="none" xmlns="http://www.w3.org/2000/svg">
<g clip-path="url(#clip0_459_395)">
<path d="M65.1582 20.9672V1.99449H77.8129C79.0916 1.96788 80.3648 2.17168 81.5737 2.59645C82.574 2.94677 83.4442 3.60153 84.0663 4.47199C84.6598 5.32104 84.9574 6.41069 84.9593 7.74094C84.9826 8.52961 84.825 9.31297 84.4991 10.0289C84.2028 10.636 83.761 11.1574 83.2144 11.545C82.6397 11.9498 82.0016 12.2523 81.3272 12.4395C80.584 12.6512 79.8211 12.7838 79.051 12.8353L78.6483 12.6012C79.7617 12.5954 80.8725 12.7085 81.9627 12.9384C82.7149 13.0791 83.3994 13.4714 83.9074 14.0531C84.3402 14.59 84.5566 15.3861 84.5566 16.4414V20.9672H80.7219V16.7145C80.7524 16.1325 80.6224 15.5533 80.3466 15.0424C80.0265 14.5944 79.5448 14.2938 79.0072 14.2064C78.0916 14.0251 77.1593 13.9466 76.227 13.9723H68.993V20.9672H65.1582ZM68.993 10.9096H77.8129C78.8866 10.9096 79.7084 10.6457 80.2781 10.1181C80.5636 9.8445 80.7875 9.51131 80.9345 9.14141C81.0816 8.7715 81.1482 8.37361 81.13 7.97503C81.1497 7.6045 81.0828 7.2345 80.9347 6.89538C80.7866 6.55627 80.5616 6.25772 80.2781 6.02425C79.712 5.5765 78.8903 5.3517 77.8129 5.34984H68.993V10.9096Z" fill="white"/>
<path d="M95.3623 21.2995C94.0117 21.3132 92.6793 20.9826 91.4864 20.338C90.3444 19.7221 89.3883 18.8022 88.7199 17.6766C88.0225 16.4745 87.6686 15.0982 87.6982 13.7026C87.6661 12.2872 88.0299 10.8916 88.7473 9.67842C89.4326 8.55234 90.4034 7.6349 91.5577 7.02257C92.8008 6.374 94.1818 6.04667 95.5787 6.06947C97.2221 6.06947 98.5524 6.40761 99.5696 7.08388C100.566 7.74196 101.337 8.69941 101.775 9.82334C102.243 11.0571 102.47 12.372 102.443 13.6942C102.438 14.5849 102.303 15.4697 102.04 16.3194C101.772 17.2109 101.352 18.0475 100.799 18.7914C100.219 19.5638 99.4687 20.1862 98.6081 20.6084C97.5935 21.0917 96.4823 21.3284 95.3623 21.2995ZM96.573 18.3678C97.5838 18.393 98.5878 18.1933 99.5148 17.7825C100.088 17.498 100.596 17.0947 101.006 16.5985C101.417 16.1023 101.721 15.5242 101.898 14.9013C102.076 14.2785 102.124 13.6246 102.038 12.9819C101.953 12.3392 101.736 11.7218 101.402 11.1694C100.935 10.4623 100.272 9.91152 99.4984 9.58646C98.5713 9.19778 97.5754 9.00803 96.573 9.02909C94.9788 9.02909 93.7398 9.45454 92.856 10.3055C91.9722 11.1564 91.5303 12.285 91.5303 13.6915C91.5093 14.5528 91.7297 15.4024 92.1657 16.1411C92.5974 16.8455 93.2167 17.4108 93.9516 17.7714C94.768 18.1734 95.6661 18.3739 96.573 18.3566V18.3678ZM102.079 6.40389H105.826V20.979H102.339C102.242 20.2154 102.174 19.541 102.136 18.9558C102.098 18.3705 102.079 17.7937 102.079 17.2252V6.40389Z" fill="white"/>
<path d="M109.228 6.39275H112.788L112.961 10.2637V26.8314H109.228V6.39275ZM119.661 21.319C118.54 21.353 117.427 21.1172 116.412 20.6307C115.558 20.203 114.813 19.5802 114.235 18.8109C113.682 18.0658 113.262 17.227 112.997 16.3334C112.735 15.4788 112.599 14.5894 112.594 13.6942C112.587 12.6855 112.72 11.6808 112.988 10.7096C113.23 9.82316 113.649 8.9975 114.221 8.28501C114.805 7.57013 115.551 7.01138 116.396 6.6575C117.437 6.23878 118.55 6.03876 119.669 6.06948C121.026 6.04848 122.365 6.38243 123.559 7.03929C124.696 7.66733 125.646 8.59409 126.311 9.72301C127.009 10.9243 127.362 12.2996 127.333 13.6942C127.367 15.1106 127.008 16.508 126.298 17.7268C125.628 18.8481 124.673 19.7647 123.534 20.3799C122.34 21.0175 121.009 21.3404 119.661 21.319ZM118.45 18.3566C119.371 18.3781 120.285 18.1776 121.115 17.7714C121.842 17.4106 122.452 16.8459 122.874 16.1439C123.3 15.4016 123.514 14.5534 123.493 13.6942C123.493 12.286 123.056 11.1527 122.181 10.2943C121.306 9.43597 120.063 9.00587 118.45 9.00401C117.494 8.99016 116.546 9.18002 115.667 9.56138C114.876 9.89662 114.192 10.4496 113.692 11.1582C113.197 11.9059 112.945 12.793 112.972 13.6942C112.952 14.5593 113.182 15.4111 113.635 16.1439C114.103 16.8605 114.764 17.4254 115.538 17.7714C116.455 18.1807 117.449 18.3805 118.45 18.3566Z" fill="white"/>
<path d="M134.387 0V3.3442H130.037V0H134.387ZM130.325 6.39299H134.072V20.9681H130.325V6.39299Z" fill="white"/>
<path d="M144.792 21.3001C143.433 21.3198 142.09 20.9931 140.886 20.3498C139.745 19.7327 138.793 18.8081 138.133 17.6772C137.445 16.4717 137.097 15.0969 137.125 13.7032C137.091 12.2974 137.435 10.9087 138.12 9.68737C138.771 8.56499 139.713 7.64625 140.842 7.03152C142.06 6.38185 143.418 6.0541 144.792 6.07843C145.916 6.04851 147.033 6.24847 148.079 6.66645C148.93 7.01786 149.682 7.57679 150.27 8.29396C150.835 9.00634 151.251 9.82853 151.492 10.7101C151.759 11.6834 151.89 12.69 151.881 13.7004C151.874 14.5894 151.737 15.4724 151.473 16.32C151.207 17.2115 150.789 18.0483 150.238 18.7919C149.658 19.5643 148.907 20.1868 148.046 20.609C147.029 21.094 145.915 21.3307 144.792 21.3001ZM145.995 18.3572C147.005 18.3825 148.008 18.1828 148.934 17.772C149.71 17.4236 150.371 16.8534 150.835 16.1305C151.284 15.4017 151.515 14.5551 151.498 13.6948C151.526 12.7998 151.29 11.9167 150.821 11.1588C150.353 10.4505 149.692 9.89578 148.92 9.56196C147.995 9.16814 146.998 8.97819 145.995 9.0046C144.399 9.0046 143.159 9.4347 142.275 10.2949C141.391 11.1551 140.949 12.2884 140.949 13.6948C140.928 14.5562 141.149 15.4058 141.585 16.1445C142.014 16.8452 142.628 17.4091 143.357 17.772C144.178 18.1765 145.082 18.377 145.995 18.3572ZM151.498 0.521484H155.253V20.9685H151.766C151.708 20.517 151.651 19.9373 151.593 19.2239C151.536 18.5105 151.506 17.8305 151.506 17.2146L151.498 0.521484Z" fill="white"/>
<path d="M83.3104 47.1789V53.8227H103.813V58.46H77.8486V31.4277H103.761V36.0706H83.3104V42.7952H100.066V47.1817L83.3104 47.1789Z" fill="white"/>
<path d="M124.63 31.4297C127.613 31.4297 130.104 31.791 132.102 32.5138C134.1 33.2365 135.695 34.2184 136.887 35.4594C138.052 36.6638 138.92 38.1316 139.421 39.7428C139.933 41.3914 140.19 43.111 140.182 44.8399C140.187 46.5881 139.902 48.3245 139.339 49.976C138.783 51.6143 137.875 53.1061 136.682 54.343C135.323 55.7001 133.681 56.7279 131.877 57.35C129.892 58.0932 127.476 58.4647 124.63 58.4647H109.425V31.4325L124.63 31.4297ZM114.898 53.6965H124.506C126.479 53.6965 128.114 53.4522 129.412 52.9635C130.585 52.5604 131.648 51.8805 132.513 50.9793C133.264 50.171 133.826 49.2002 134.156 48.1395C134.486 47.0719 134.652 45.959 134.649 44.8399C134.655 43.7334 134.488 42.633 134.156 41.5793C133.824 40.5443 133.262 39.6012 132.513 38.8232C131.639 37.9472 130.578 37.289 129.412 36.9002C128.114 36.4302 126.479 36.1942 124.506 36.1924H114.887L114.898 53.6965Z" fill="white"/>
<path d="M160.787 59.0033C158.533 59.0316 156.287 58.7361 154.114 58.1255C152.249 57.6019 150.504 56.7068 148.981 55.4919C147.552 54.3349 146.418 52.8446 145.675 51.1472C144.878 49.2628 144.486 47.2263 144.527 45.1751C144.488 43.0823 144.901 41.0063 145.738 39.0942C146.53 37.3457 147.71 35.8087 149.187 34.6046C150.769 33.328 152.583 32.3811 154.525 31.8178C156.761 31.1674 159.078 30.851 161.403 30.8786C164.387 30.8786 166.96 31.3031 169.122 32.1522C171.284 33.0013 172.989 34.1922 174.236 35.7249C175.489 37.2768 176.229 39.1911 176.35 41.1955H171.102C170.756 40.1027 170.157 39.11 169.357 38.2999C168.455 37.4197 167.366 36.7618 166.175 36.377C164.635 35.8837 163.025 35.6512 161.411 35.6887C159.037 35.6887 157.005 36.0779 155.314 36.8564C153.741 37.5435 152.405 38.6935 151.479 40.1588C150.578 41.6683 150.122 43.4094 150.164 45.1751C150.117 46.8599 150.512 48.527 151.309 50.0046C152.134 51.407 153.383 52.4993 154.87 53.1175C156.47 53.8421 158.516 54.2044 161.009 54.2044C162.729 54.2346 164.443 53.9728 166.079 53.4296C167.425 52.9828 168.674 52.2739 169.755 51.3423C170.68 50.5504 171.4 49.5387 171.85 48.3966L173.984 47.6024C173.628 51.1937 172.293 53.9926 169.979 55.9991C167.666 58.0056 164.601 59.007 160.787 59.0033ZM172.565 58.4599C172.565 57.596 172.62 56.6001 172.729 55.4724C172.839 54.3447 172.976 53.203 173.14 52.0474C173.304 50.8918 173.455 49.8263 173.592 48.8509H161.452V45.3005H177.301V58.4599H172.565Z" fill="white"/>
<path d="M188.512 47.1789V53.8227H208.995V58.46H183.05V31.4277H208.959V36.0706H188.512V42.7952H205.264V47.1817L188.512 47.1789Z" fill="white"/>
<path d="M0.000109584 4.24625V17.9017C0.000109584 18.0495 0.0578265 18.1913 0.160563 18.2958C0.2633 18.4004 0.402641 18.4591 0.547933 18.4591H41.5306C41.6283 18.4557 41.7252 18.4789 41.8111 18.5265C41.897 18.574 41.9688 18.644 42.0191 18.7294C42.0694 18.8147 42.0964 18.9121 42.0972 19.0116C42.098 19.1111 42.0726 19.209 42.0236 19.2951C40.2761 22.7397 37.7771 25.9111 34.5267 28.8094C30.4271 32.4638 25.3278 35.3621 19.2287 37.5043C17.3694 38.1513 15.4755 38.69 13.556 39.1179C13.4304 39.1439 13.3177 39.214 13.2377 39.3158C13.1576 39.4177 13.1152 39.5448 13.1177 39.6752C13.1177 50.2429 24.9918 56.3377 33.2886 49.9865C34.0336 49.418 34.7595 48.8263 35.4662 48.2113C40.7493 43.6383 44.9226 37.8853 47.6607 31.4011C47.701 31.2581 47.7956 31.1372 47.9235 31.0651C48.0514 30.993 48.2022 30.9755 48.3428 31.0165C48.4833 31.0576 48.6021 31.1537 48.673 31.2839C48.7439 31.414 48.7611 31.5675 48.7208 31.7105V31.7634C48.0378 36.5753 47.4681 41.3288 47.0116 46.0236C46.5788 50.4826 46.3514 54.438 46.3295 57.89C46.3295 58.0378 46.3872 58.1795 46.49 58.2841C46.5927 58.3886 46.732 58.4473 46.8773 58.4473H65.4157C65.561 58.4473 65.7003 58.3886 65.803 58.2841C65.9058 58.1795 65.9635 58.0378 65.9635 57.89C65.9635 27.951 42.1085 3.67773 12.6795 3.67773H0.547933C0.47506 3.67772 0.402917 3.6925 0.335728 3.7212C0.268539 3.74991 0.207653 3.79196 0.156638 3.8449C0.105622 3.89785 0.0655003 3.96061 0.0386229 4.02953C0.0117455 4.09844 -0.00134787 4.17212 0.000109584 4.24625Z" fill="white"/>
</g>
<defs>
<clipPath id="clip0_459_395">
<rect width="209" height="59" fill="white"/>
</clipPath>
</defs>
</svg>
