<svg width="23" height="18" viewBox="0 0 23 18" fill="none" xmlns="http://www.w3.org/2000/svg">
<path fill-rule="evenodd" clip-rule="evenodd" d="M1.27778 0C0.572087 0 0 0.57564 0 1.28571C0 1.99579 0.572087 2.57143 1.27778 2.57143H21.7222C22.4279 2.57143 23 1.99579 23 1.28571C23 0.57564 22.4279 0 21.7222 0H1.27778ZM0 9C0 8.2899 0.572087 7.71429 1.27778 7.71429H21.7222C22.4279 7.71429 23 8.2899 23 9C23 9.7101 22.4279 10.2857 21.7222 10.2857H1.27778C0.572087 10.2857 0 9.7101 0 9ZM0 16.7143C0 16.0042 0.572087 15.4286 1.27778 15.4286H21.7222C22.4279 15.4286 23 16.0042 23 16.7143C23 17.4244 22.4279 18 21.7222 18H1.27778C0.572087 18 0 17.4244 0 16.7143Z" fill="white"/>
</svg>
